<svg width="140" height="41" viewBox="0 0 140 41" fill="none" xmlns="http://www.w3.org/2000/svg">
<g clip-path="url(#clip0_25_109)">
<mask id="mask0_25_109" style="mask-type:luminance" maskUnits="userSpaceOnUse" x="0" y="0" width="140" height="41">
<path d="M140 0H0V40.768H140V0Z" fill="white"/>
</mask>
<g mask="url(#mask0_25_109)">
<path d="M134.5 30.1918C136.53 27.0549 137.601 23.4399 137.601 19.6661C137.601 8.95567 128.888 0.242798 118.177 0.242798C107.467 0.242798 98.7538 8.95567 98.7538 19.6661C98.7538 30.3766 107.461 39.0819 118.165 39.0895C118.166 39.0895 118.17 39.0895 118.171 39.0895H118.177C122.782 39.0895 127.214 37.4325 130.684 34.52L140 40.7679V33.8801L134.502 30.1918H134.5ZM104.475 19.6661C104.475 12.1109 110.622 5.96382 118.179 5.96382C125.735 5.96382 131.881 12.1109 131.881 19.6661C131.881 22.296 131.145 24.8145 129.749 27.006L123.157 22.5847C121.678 21.5996 119.953 21.0788 118.17 21.0788C113.24 21.0788 109.225 25.0619 109.166 29.978C106.294 27.4642 104.473 23.7744 104.473 19.6661H104.475ZM118.179 33.3685C118.179 33.3685 118.17 33.3685 118.165 33.3685C116.357 33.3654 114.886 31.8932 114.886 30.0834C114.886 28.2736 116.36 26.7983 118.171 26.7983C118.822 26.7983 119.451 26.9877 119.987 27.3451L125.648 31.1433C123.448 32.5728 120.853 33.3685 118.177 33.3685H118.179Z" fill="white"/>
<path d="M86.9973 1.92272C86.7468 1.62491 86.4673 1.35459 86.1619 1.12093C85.2119 0.387855 84.0665 0.00146484 82.8524 0.00146484C81.6382 0.00146484 80.4943 0.389382 79.5429 1.12093C79.0328 1.51495 78.599 1.9945 78.2569 2.54889C78.0614 2.86503 77.8995 3.19338 77.7758 3.52326L64.7165 38.4481H71.2622L82.8524 7.45284L94.4425 38.4481H100.988L87.9289 3.52326C87.712 2.94139 87.3974 2.4038 86.9958 1.92425L86.9973 1.92272Z" fill="white"/>
<path d="M49.0043 1.92272C48.7538 1.62491 48.4743 1.35459 48.1689 1.12093C47.219 0.387855 46.0735 0.00146484 44.8594 0.00146484C43.6452 0.00146484 42.5013 0.389382 41.5499 1.12093C41.0398 1.51495 40.606 1.9945 40.2639 2.54889C40.0684 2.86503 39.9066 3.19338 39.7829 3.52326L26.7235 38.4481H33.2692L44.8594 7.45284L56.4496 38.4481H62.9953L49.9374 3.52174C49.7206 2.93986 49.406 2.40228 49.0043 1.92272Z" fill="white"/>
<path d="M27.6078 1.43407V1.04004H21.9005V25.265C21.9005 29.749 18.252 33.3975 13.768 33.3975C9.71626 33.3975 6.25097 30.3767 5.7088 26.3692L5.65535 25.9782L5.26438 26.0317L0.390972 26.6914L0 26.7449L0.0534532 27.1359C0.975902 33.9611 6.87255 39.1063 13.768 39.1063C21.3996 39.1063 27.6078 32.8981 27.6078 25.2665V1.43407Z" fill="white"/>
</g>
</g>
<defs>
<clipPath id="clip0_25_109">
<rect width="140" height="40.768" fill="white"/>
</clipPath>
</defs>
</svg>
