<svg width="182" height="28" viewBox="0 0 182 28" fill="none" xmlns="http://www.w3.org/2000/svg">
<path d="M8.3602 0C12.7075 0 15.55 2.60838 15.55 6.68816C15.55 10.7345 12.7075 13.3763 8.3602 13.3763H2.7087V21.7365H0V0H8.3602ZM2.7087 10.9017H8.12611C10.9686 10.9017 12.8078 9.2631 12.8078 6.68816C12.8078 4.11322 11.002 2.50806 8.15955 2.50806H2.7087V10.9017Z" fill="white"/>
<path d="M25.4818 5.8855V8.36012H24.2111C20.9005 8.36012 19.9976 11.1357 19.9976 13.6438V21.7364H17.4561V5.8855H19.6631L19.9976 8.25979C20.7333 7.05593 21.9371 5.8855 24.7796 5.8855H25.4818Z" fill="white"/>
<path d="M25.8828 13.8112C25.8828 8.9957 29.1266 5.71851 33.7414 5.71851C38.3562 5.71851 41.6 8.9957 41.6 13.8112C41.6 18.6266 38.3562 21.9038 33.7414 21.9038C29.1266 21.9038 25.8828 18.6266 25.8828 13.8112ZM38.9916 13.8112C38.9916 10.4337 36.8848 7.95904 33.7414 7.95904C30.598 7.95904 28.4912 10.4002 28.4912 13.8112C28.4912 17.2221 30.598 19.6633 33.7414 19.6633C36.8848 19.6633 38.9916 17.1887 38.9916 13.8112Z" fill="white"/>
<path d="M59.2575 13.8112C59.2575 18.6601 56.0137 21.9038 51.6664 21.9038C48.9912 21.9038 47.1854 20.8337 46.249 19.2955V27.9232H43.7075V5.8857H45.9146L46.249 8.4272C47.3191 6.95581 49.0246 5.68506 51.6664 5.68506C56.0137 5.7185 59.2575 8.66129 59.2575 13.8112ZM56.6491 13.8112C56.6491 10.3668 54.5423 7.95903 51.3989 7.95903C48.2889 7.95903 46.1821 10.3333 46.1821 13.7443C46.1821 17.2221 48.2889 19.6299 51.3989 19.6299C54.5423 19.6633 56.6491 17.2556 56.6491 13.8112Z" fill="white"/>
<path d="M63.5371 16.5199C63.6374 18.3926 65.3095 19.7637 67.8844 19.7637C70.0915 19.7637 71.6298 18.7939 71.6298 17.356C71.6298 15.383 69.9243 15.1489 67.5834 14.8813C64.139 14.4466 61.2966 13.8112 61.2966 10.5006C61.2966 7.62469 63.9384 5.68512 67.4162 5.71857C70.9944 5.75201 73.5693 7.45749 73.8034 10.7347H71.2619C71.0613 9.12953 69.5564 7.89222 67.4162 7.89222C65.276 7.89222 63.8046 8.862 63.8046 10.3C63.8046 12.0389 65.4432 12.2061 67.6838 12.4736C71.2285 12.9083 74.1044 13.644 74.1044 17.1553C74.1044 20.0981 71.2954 21.9373 67.8175 21.9373C63.7712 21.9373 60.9956 19.9978 60.9287 16.5199H63.5371Z" fill="white"/>
<path d="M77.7165 8.22635H74.874V5.8855H77.7165V1.47131H80.258V5.91894H84.2709V8.25979H80.258V17.5898C80.258 18.9274 80.7262 19.429 81.9969 19.429H84.7725V21.7699H81.8632C78.82 21.7699 77.7499 20.4322 77.7499 17.6567V8.22635H77.7165Z" fill="white"/>
<path d="M85.3076 13.8112C85.3076 8.9957 88.5514 5.71851 93.1662 5.71851C97.781 5.71851 101.025 8.9957 101.025 13.8112C101.025 18.6266 97.781 21.9038 93.1662 21.9038C88.5179 21.9038 85.3076 18.6266 85.3076 13.8112ZM98.383 13.8112C98.383 10.4337 96.2762 7.95904 93.1328 7.95904C89.9893 7.95904 87.8826 10.4002 87.8826 13.8112C87.8826 17.2221 89.9893 19.6633 93.1328 19.6633C96.2762 19.6633 98.383 17.1887 98.383 13.8112Z" fill="white"/>
<path d="M111.09 5.8855V8.36012H109.819C106.509 8.36012 105.606 11.1357 105.606 13.6438V21.7364H103.064V5.8855H105.272L105.606 8.25979C106.342 7.05593 107.546 5.8855 110.388 5.8855H111.09Z" fill="white"/>
<path d="M119.016 5.71851C123.363 5.71851 126.406 8.52753 126.54 13.2427C126.54 13.5771 126.507 13.9449 126.473 14.3128H114.167V14.5134C114.267 17.59 116.207 19.6299 119.15 19.6299C121.39 19.6299 123.129 18.4594 123.664 16.3861H126.239C125.604 19.563 122.995 21.8704 119.35 21.8704C114.602 21.8704 111.492 18.6267 111.492 13.7777C111.492 8.92882 114.535 5.71851 119.016 5.71851ZM123.865 12.206C123.631 9.46387 121.658 7.95904 119.016 7.95904C116.675 7.95904 114.535 9.63108 114.301 12.206H123.865Z" fill="white"/>
<path d="M145.694 10.1539V0.676999H149.079C150.879 0.676999 151.976 1.57054 151.976 3.11392C151.976 3.99392 151.353 4.69792 150.717 4.96869C151.692 5.29361 152.396 6.06531 152.396 7.39208C152.396 9.09792 151.245 10.1539 149.295 10.1539H145.694ZM146.845 4.60315H149.052C150.189 4.60315 150.825 4.11577 150.825 3.141C150.825 2.16623 150.189 1.69238 149.052 1.69238H146.845V4.60315ZM146.845 9.11146H149.106C150.5 9.11146 151.218 8.50223 151.218 7.37854C151.218 6.24131 150.5 5.63208 149.106 5.63208H146.845V9.11146Z" fill="white"/>
<path d="M156.502 3.22223C158.276 3.22223 159.386 4.23762 159.386 5.75392V10.1539H158.303V8.97608C157.937 9.76131 157.03 10.2622 155.974 10.2622C154.539 10.2622 153.605 9.44992 153.605 8.20438C153.605 6.90469 154.674 6.07885 156.326 6.07885H157.869C158.167 6.07885 158.303 5.92992 158.303 5.71331C158.303 4.77915 157.639 4.14285 156.475 4.14285C155.473 4.14285 154.688 4.76561 154.634 5.51023H153.605C153.727 4.197 154.972 3.22223 156.502 3.22223ZM156.137 9.34162C157.504 9.34162 158.303 8.48869 158.303 7.08069V6.90469H156.394C155.378 6.90469 154.715 7.39208 154.715 8.19085C154.715 8.89485 155.27 9.34162 156.137 9.34162Z" fill="white"/>
<path d="M163.913 10.2622C161.76 10.2622 160.596 8.56992 160.596 6.74223C160.596 4.91454 161.76 3.22223 163.913 3.22223C165.442 3.22223 166.81 4.11577 167.013 5.63208H165.943C165.808 4.80623 164.955 4.197 163.926 4.197C162.437 4.197 161.719 5.34777 161.719 6.74223C161.719 8.13669 162.45 9.28746 163.926 9.28746C164.955 9.28746 165.7 8.773 165.943 7.94715H166.999C166.769 9.34162 165.646 10.2622 163.913 10.2622Z" fill="white"/>
<path d="M173.037 10.1539L170.384 6.74223L169.49 7.55454V10.1539H168.393V0.528076H169.49V6.21423L172.699 3.33054H174.134L171.209 5.99762L174.405 10.1539H173.037Z" fill="white"/>
<path d="M149.904 22.1084C147.237 22.1084 145.261 20.0505 145.261 17.2616C145.261 14.4727 147.237 12.4148 149.904 12.4148C152.572 12.4148 154.562 14.4727 154.562 17.2616C154.562 20.0505 152.572 22.1084 149.904 22.1084ZM149.904 21.0659C151.895 21.0659 153.37 19.4413 153.37 17.2616C153.37 15.0819 151.895 13.4573 149.904 13.4573C147.914 13.4573 146.452 15.0819 146.452 17.2616C146.452 19.4413 147.914 21.0659 149.904 21.0659Z" fill="white"/>
<path d="M165.873 15.1767V22.0001H164.79V16.1379H161.812V22.0001H160.729V16.1379H157.832V22.0001H156.749V16.1379H155.327V15.1767H156.749V14.4862C156.749 13.1865 157.574 12.3742 158.874 12.3742H159.957V13.3355H158.928C158.265 13.3355 157.832 13.7687 157.832 14.4998V15.1767H160.729V14.4862C160.729 13.1865 161.555 12.3742 162.854 12.3742H163.924V13.3355H162.895C162.232 13.3355 161.812 13.7687 161.812 14.4998V15.1767H165.873Z" fill="white"/>
<path d="M170.51 22.1084C168.357 22.1084 167.193 20.4161 167.193 18.5884C167.193 16.7607 168.357 15.0684 170.51 15.0684C172.04 15.0684 173.407 15.9619 173.61 17.4782H172.541C172.405 16.6524 171.552 16.0432 170.524 16.0432C169.034 16.0432 168.317 17.1939 168.317 18.5884C168.317 19.9828 169.048 21.1336 170.524 21.1336C171.552 21.1336 172.297 20.6192 172.541 19.7933H173.597C173.367 21.1878 172.243 22.1084 170.51 22.1084Z" fill="white"/>
<path d="M179.946 19.8068H181.042C180.812 21.2013 179.607 22.1084 177.915 22.1084C175.898 22.1084 174.544 20.4973 174.544 18.5478C174.544 16.5441 175.79 15.0684 177.793 15.0684C179.783 15.0684 180.975 16.4493 180.975 18.2635C180.975 18.4124 180.961 18.6425 180.948 18.7373H175.614C175.695 20.1453 176.629 21.1472 177.915 21.1472C179.025 21.1472 179.729 20.6598 179.946 19.8068ZM177.793 15.989C176.642 15.989 175.871 16.6659 175.668 17.8708H179.865C179.783 16.7201 179.012 15.989 177.793 15.989Z" fill="white"/>
<path fill-rule="evenodd" clip-rule="evenodd" d="M136.231 22L136.231 3.69865e-08L137.077 0L137.077 22L136.231 22Z" fill="white"/>
</svg>
