<svg width="173" height="35" viewBox="0 0 173 35" fill="none" xmlns="http://www.w3.org/2000/svg">
<g clip-path="url(#clip0_734_2166)">
<path d="M59.3501 10C58.1076 16.666 55.7836 23.0839 52.4701 29H46.7801C43.4267 23.0994 41.0907 16.6763 39.8701 10H45.2201C45.9288 14.9609 47.2906 19.8063 49.2701 24.41L49.6401 25.27L50.0101 24.41C51.987 19.8046 53.3519 14.96 54.0701 10H59.3501ZM79.9301 19.4C79.9301 25.64 76.2701 29.4 70.1601 29.4C64.0501 29.4 60.4201 25.69 60.4201 19.45C60.4201 13.21 63.9501 9.65 70.1601 9.65C76.3701 9.65 79.9301 13.21 79.9301 19.45V19.4ZM74.7401 19.4C74.7401 15.72 73.0201 13.5 70.1601 13.5C67.3001 13.5 65.6401 15.71 65.6401 19.4C65.6401 23.3 67.2401 25.48 70.1601 25.48C73.0801 25.48 74.7301 23.24 74.7301 19.4H74.7401ZM117 18.77C117 25.47 113.25 29.33 106.71 29.33C100.71 29.33 97.7101 25.99 97.7101 19.11V0H102.9V11.76L103.55 11.33C105.174 10.1745 107.117 9.55242 109.11 9.55C114.02 9.55 116.97 12.99 116.97 18.77H117ZM111.47 19.2C111.47 15.76 109.93 13.76 107.26 13.76C105.721 13.8325 104.25 14.4167 103.08 15.42L102.93 15.54V19.54C102.93 23.16 104.44 25.25 107.11 25.25C109.78 25.25 111.47 22.97 111.47 19.2ZM138.53 19.35C138.53 25.59 134.88 29.35 128.76 29.35C122.64 29.35 119 25.59 119 19.35C119 13.11 122.53 9.55 128.73 9.55C134.93 9.55 138.5 13.11 138.5 19.35H138.53ZM133.34 19.35C133.34 15.67 131.62 13.45 128.76 13.45C125.9 13.45 124.25 15.66 124.25 19.35C124.25 23.25 125.85 25.43 128.76 25.43C131.67 25.43 133.34 23.19 133.34 19.35ZM140.56 24.63V28.57C142.531 29.102 144.569 29.3479 146.61 29.3C152.81 29.3 155.61 27.49 155.61 23.4C155.61 19.81 153.27 18.77 150.91 17.97C150.375 17.7896 149.831 17.636 149.28 17.51C147.38 16.98 145.87 16.51 145.87 15.26C145.87 14.01 146.87 13.48 149.03 13.48C150.877 13.4911 152.719 13.6786 154.53 14.04V10.17C152.821 9.75899 151.068 9.55089 149.31 9.55C143.72 9.55 140.77 11.55 140.77 15.33C140.77 18.64 143.23 19.69 145.99 20.55C146.24 20.64 146.49 20.7 146.73 20.79C148.67 21.41 150.2 21.9 150.2 23.28C150.2 25.16 148.2 25.4 146.55 25.4C144.53 25.3315 142.522 25.0737 140.55 24.63M157.96 24.63V28.57C159.931 29.1015 161.969 29.3473 164.01 29.3C170.21 29.3 173.01 27.49 173.01 23.4C173.01 19.81 170.68 18.76 168.31 17.97C167.76 17.78 167.21 17.63 166.69 17.5C164.79 16.98 163.28 16.55 163.28 15.26C163.28 13.97 164.28 13.48 166.44 13.48C168.287 13.4878 170.128 13.672 171.94 14.03V10.16C170.229 9.75719 168.478 9.55251 166.72 9.55C161.13 9.55 158.18 11.55 158.18 15.32C158.18 18.64 160.64 19.69 163.4 20.55L164.14 20.79C166.07 21.41 167.61 21.9 167.61 23.28C167.61 25.15 165.61 25.4 163.95 25.4C161.931 25.3271 159.922 25.0694 157.95 24.63M92.6701 14C93.4129 13.9946 94.1519 14.106 94.8601 14.33L95.8601 10.03C95.5365 9.91374 95.2012 9.83326 94.8601 9.79C94.444 9.71954 94.022 9.6894 93.6001 9.7C92.6786 9.67405 91.761 9.83037 90.9001 10.16C90.2176 10.4213 89.5774 10.7818 89.0001 11.23C88.5424 11.578 88.1293 11.981 87.7701 12.43L87.5901 12.65L87.3701 10H82.4501V28.9H87.5501V18.74C87.5298 18.0845 87.6547 17.4326 87.9157 16.831C88.1768 16.2294 88.5675 15.693 89.0601 15.26C90.0784 14.4226 91.362 13.9759 92.6801 14" fill="white"/>
<path d="M13.92 25.0898C12.3409 27.8999 11.2011 30.935 10.54 34.0898C11.4891 34.4105 12.467 34.6383 13.46 34.7698C13.8193 32.3401 14.4915 29.967 15.46 27.7098C16.4404 29.9767 17.113 32.3646 17.46 34.8098C18.4629 34.6783 19.4508 34.4506 20.41 34.1298C19.7403 30.9731 18.5903 27.9378 17 25.1298L13.92 25.0898Z" fill="#D5966A"/>
<path d="M10.3 22.2998C7.19525 23.1843 4.24192 24.5329 1.54004 26.2998C1.99599 27.196 2.53147 28.0494 3.14004 28.8498C5.1208 27.3883 7.27778 26.1821 9.56004 25.2598C8.6661 27.534 7.46857 29.6767 6.00004 31.6298C6.79574 32.2604 7.66145 32.7973 8.58004 33.2298C10.3434 30.5279 11.6697 27.5649 12.51 24.4498L10.3 22.2998Z" fill="#D5966A"/>
<path d="M9.70996 17.7198C6.90071 16.139 3.86532 14.9991 0.709961 14.3398C0.383666 15.2892 0.145984 16.2667 -3.90634e-05 17.2598C2.42871 17.6238 4.80117 18.2959 7.05996 19.2598C4.79264 20.2389 2.40496 20.9115 -0.0400391 21.2598C0.0914997 22.2627 0.319215 23.2506 0.639961 24.2098C3.79621 23.5385 6.83127 22.3885 9.63996 20.7998L9.70996 17.7198Z" fill="#D5966A"/>
<path d="M12.5098 14.0998C11.623 10.9959 10.2746 8.0429 8.50982 5.33984C7.63214 5.80593 6.79284 6.34094 5.99982 6.93984C7.46818 8.9179 8.67796 11.0753 9.59982 13.3598C7.30445 12.4585 5.14151 11.2509 3.16982 9.76984C2.54614 10.5704 2.00977 11.4353 1.56982 12.3498C4.27528 14.1133 7.24163 15.4395 10.3598 16.2798L12.5098 14.0998Z" fill="#D5966A"/>
<path d="M17.0798 13.5098C18.6706 10.7052 19.8112 7.66823 20.4598 4.5098C19.5126 4.19708 18.5384 3.97279 17.5498 3.8398C17.1811 6.26754 16.5092 8.6394 15.5498 10.8998C14.5649 8.63456 13.8921 6.24608 13.5498 3.7998C12.5298 3.92702 11.5249 4.15479 10.5498 4.4798C11.2212 7.63605 12.3711 10.6711 13.9598 13.4798L17.0798 13.5098Z" fill="#D5966A"/>
<path d="M20.7102 16.3102C23.8118 15.4254 26.7618 14.0768 29.4602 12.3102C29.0082 11.4118 28.4725 10.558 27.8602 9.76016C25.8808 11.2237 23.7236 12.4301 21.4402 13.3502C22.3429 11.0863 23.5399 8.95131 25.0002 7.00016C24.2003 6.37836 23.3352 5.84524 22.4202 5.41016C20.6529 8.10986 19.3263 11.0736 18.4902 14.1902L20.7102 16.3102Z" fill="#D5966A"/>
<path d="M21.29 20.8896C24.1001 22.4687 27.1352 23.6086 30.29 24.2696C30.6162 23.3202 30.8539 22.3428 31 21.3496C28.5681 20.9854 26.1924 20.3133 23.93 19.3496C26.1978 18.3719 28.5853 17.6993 31.03 17.3496C30.9051 16.3302 30.6807 15.3254 30.36 14.3496C27.2033 15.0193 24.168 16.1694 21.36 17.7596L21.29 20.8896Z" fill="#D5966A"/>
<path d="M27.8302 28.8401C28.4609 28.0444 28.9977 27.1787 29.4302 26.2601C26.7283 24.4967 23.7653 23.1704 20.6502 22.3301L18.4702 24.5101C19.355 27.6117 20.7035 30.5617 22.4702 33.2601C23.3617 32.807 24.2087 32.2713 25.0002 31.6601C23.5366 29.6842 22.3303 27.5303 21.4102 25.2501C23.7062 26.1435 25.8669 27.3518 27.8302 28.8401Z" fill="#D5966A"/>
</g>
<defs>
<clipPath id="clip0_734_2166">
<rect width="173" height="35" fill="white"/>
</clipPath>
</defs>
</svg>
