<svg width="24" height="24" viewBox="0 0 24 24" fill="none" xmlns="http://www.w3.org/2000/svg">
<path d="M10.7833 16.4456C9.56348 18.6162 8.68303 20.9607 8.17236 23.3976C8.9055 23.6454 9.66088 23.8213 10.4279 23.9229C10.7055 22.0461 11.2247 20.213 11.9728 18.4694C12.7302 20.2205 13.2497 22.065 13.5177 23.9538C14.2924 23.8522 15.0556 23.6763 15.7965 23.4285C15.2792 20.9901 14.3909 18.6455 13.1624 16.4765L10.7833 16.4456Z" fill="#D5966A"/>
<path d="M7.98689 14.2904C5.58861 14.9736 3.30729 16.0154 1.22021 17.3802C1.57242 18.0725 1.98605 18.7317 2.45614 19.35C3.98619 18.221 5.65236 17.2893 7.4153 16.5769C6.72477 18.3336 5.79973 19.9887 4.66536 21.4974C5.28 21.9845 5.94873 22.3992 6.65829 22.7333C8.02041 20.6462 9.04492 18.3575 9.69401 15.9512L7.98689 14.2904Z" fill="#D5966A"/>
<path d="M7.53143 10.7526C5.36141 9.53152 3.01671 8.651 0.579341 8.14172C0.327293 8.87509 0.143694 9.63017 0.0308982 10.3973C1.907 10.6785 3.73961 11.1976 5.48443 11.9422C3.73302 12.6985 1.88865 13.2181 0 13.4871C0.101608 14.2618 0.277507 15.0249 0.525269 15.7658C2.96333 15.2473 5.30777 14.359 7.47736 13.1318L7.53143 10.7526Z" fill="#D5966A"/>
<path d="M9.6938 7.95624C9.00879 5.55862 7.96721 3.27757 6.604 1.18958C5.92603 1.54961 5.27771 1.96288 4.66514 2.4255C5.79938 3.95346 6.73388 5.61996 7.44597 7.38463C5.6729 6.68842 4.00213 5.7556 2.47909 4.61155C1.99733 5.22994 1.58301 5.89804 1.24316 6.60445C3.33301 7.96667 5.62438 8.9911 8.03302 9.6402L9.6938 7.95624Z" fill="#D5966A"/>
<path d="M13.2243 7.50053C14.4531 5.33411 15.3342 2.98819 15.8352 0.548443C15.1035 0.306881 14.351 0.133627 13.5874 0.0308981C13.3026 1.90622 12.7835 3.73837 12.0424 5.48443C11.2817 3.73463 10.762 1.88964 10.4975 0C9.70964 0.0982717 8.9334 0.274214 8.18018 0.525269C8.6988 2.96333 9.58705 5.30777 10.8142 7.47736L13.2243 7.50053Z" fill="#D5966A"/>
<path d="M16.0283 9.66368C18.4242 8.98021 20.7029 7.93848 22.7873 6.57386C22.4382 5.87989 22.0243 5.22037 21.5514 4.60407C20.0224 5.73459 18.356 6.66648 16.5922 7.37721C17.2895 5.62846 18.2141 3.97927 19.3422 2.4721C18.7243 1.99179 18.056 1.57998 17.3492 1.2439C15.9841 3.32929 14.9593 5.61865 14.3135 8.02608L16.0283 9.66368Z" fill="#D5966A"/>
<path d="M16.4761 13.2011C18.6467 14.4209 20.9912 15.3014 23.4282 15.812C23.6801 15.0787 23.8637 14.3237 23.9766 13.5565C22.0981 13.2751 20.263 12.756 18.5154 12.0116C20.2671 11.2563 22.1114 10.7368 23.9998 10.4667C23.9033 9.67922 23.73 8.90305 23.4822 8.14929C21.0438 8.6666 18.6992 9.555 16.5301 10.7834L16.4761 13.2011Z" fill="#D5966A"/>
<path d="M21.5285 19.3425C22.0157 18.7279 22.4304 18.0592 22.7644 17.3496C20.6773 15.9874 18.3886 14.9629 15.9823 14.3138L14.2983 15.9978C14.9818 18.3936 16.0235 20.6724 17.3882 22.7568C18.0768 22.4068 18.7311 21.993 19.3425 21.5208C18.2119 19.9946 17.2801 18.3308 16.5694 16.5694C18.3429 17.2595 20.012 18.1929 21.5285 19.3425Z" fill="#D5966A"/>
</svg>
