<svg width="24" height="24" viewBox="0 0 24 24" fill="none" xmlns="http://www.w3.org/2000/svg">
<path fill-rule="evenodd" clip-rule="evenodd" d="M13.6287 0C14.4145 0 15.0494 0.640795 15.0494 1.42851V5.86429L19.2048 3.44292C19.8753 3.05267 20.7284 3.27419 21.1293 3.93341L21.1489 3.96674L23.1224 7.41638C23.506 8.08707 23.2879 8.94102 22.6357 9.34482L22.6027 9.36464L15.0494 13.7661V22.5715C15.0494 23.3469 14.4341 23.98 13.6655 23.9996L13.6287 24H9.68294C8.90825 24 8.28188 23.3791 8.26227 22.6084V22.5715L8.26103 17.68L4.42558 19.9158C3.75507 20.3061 2.90193 20.0846 2.5011 19.4254L2.48149 19.3922L0.507989 15.9425C0.118192 15.2607 0.349869 14.3892 1.0265 13.9942L4.83989 11.7722L0.707793 9.36461C0.0421958 8.97602 -0.193149 8.12669 0.170908 7.45001L0.189293 7.41633L2.1628 3.9667C2.54769 3.29298 3.39715 3.054 4.07256 3.42394L4.10688 3.44294L8.26103 5.86429L8.26227 1.42851C8.26227 0.653103 8.87638 0.0200607 9.64617 0.000467448L9.68294 0H13.6287ZM19.6473 4.73204C19.271 4.95115 18.9327 5.14835 18.6311 5.32365C18.614 5.32897 18.5968 5.33573 18.5796 5.34389L18.5551 5.35721L15.0494 7.39763V7.41606L14.8055 7.55825L12.3674 8.97873C12.2755 9.03272 12.1786 9.07537 12.0781 9.10666C11.806 9.20789 11.5057 9.20789 11.2335 9.10665C11.133 9.0754 11.0362 9.03277 10.943 8.97878L8.26227 7.41606L8.26103 7.39763L4.75654 5.35724C4.73203 5.34287 4.70628 5.33167 4.67931 5.32353C4.38635 5.15293 4.04804 4.95574 3.66315 4.73207C3.49277 4.63239 3.2758 4.68557 3.16671 4.85159L3.15445 4.87125L1.46287 7.82613C1.35745 8.01018 1.41998 8.24571 1.60017 8.35086C2.36505 8.79568 2.93749 9.12931 3.31993 9.35172C3.36651 9.37914 3.41431 9.40307 3.46212 9.42362L6.16741 10.9985L6.17109 10.9969L9.56404 12.9747L9.58856 12.9899V22.2998C9.58856 22.5042 9.74545 22.6697 9.94158 22.6812L9.96365 22.6819H13.348C13.5466 22.6819 13.7096 22.5238 13.7219 22.3224V22.2998V12.9899L13.9315 12.8682L19.5885 9.57578C19.6314 9.5575 19.6755 9.53594 19.7184 9.51096C20.1609 9.25315 20.8253 8.86647 21.7115 8.35087C21.8843 8.24961 21.9493 8.02745 21.8598 7.84682L21.8488 7.82617L20.1572 4.87128C20.053 4.68989 19.8263 4.62855 19.6473 4.73204ZM19.13 12.1708L19.3776 12.3153L22.648 14.221C23.3258 14.6159 23.5575 15.4873 23.1677 16.1692L21.1942 19.6189C20.802 20.3039 19.9317 20.5395 19.2501 20.1426L15.7358 18.0947V14.1485L19.13 12.1708ZM19.1312 13.7272L18.321 14.2016V15.7052L17.0732 16.4347L17.0744 17.347L19.6583 18.8588L19.6779 18.8696C19.852 18.9578 20.064 18.8944 20.1646 18.7196L21.8488 15.7622L21.8598 15.7414C21.9493 15.5608 21.8843 15.3384 21.7115 15.2372L19.1312 13.7272ZM6.17967 12.5527L1.94461 15.0192C1.76319 15.1254 1.69945 15.3632 1.8061 15.549L3.50993 18.5329C3.61412 18.7159 3.84334 18.7778 4.0223 18.6734L8.26103 16.1962L8.26227 13.7661L6.17967 12.5527ZM13.3701 1.40572H9.94036C9.73198 1.40572 9.56159 1.57922 9.56159 1.79551V6.53527L11.4677 7.65253C11.5841 7.72074 11.7275 7.72074 11.844 7.65248L13.7501 6.53527V1.79551C13.7501 1.57922 13.5797 1.40572 13.3701 1.40572Z" fill="url(#paint0_linear_28_178)"/>
<defs>
<linearGradient id="paint0_linear_28_178" x1="3.6325" y1="6.3878" x2="20.8498" y2="16.9211" gradientUnits="userSpaceOnUse">
<stop stop-color="#FFA288"/>
<stop offset="1" stop-color="#FF5D87"/>
</linearGradient>
</defs>
</svg>
