<svg width="142" height="36" viewBox="0 0 142 36" fill="none" xmlns="http://www.w3.org/2000/svg">
<g clip-path="url(#clip0_1_361)">
<path fill-rule="evenodd" clip-rule="evenodd" d="M134.001 0C134.642 0 135.16 0.522766 135.16 1.16539L135.16 4.78414L138.55 2.80876C139.097 2.49039 139.793 2.67111 140.12 3.20891L140.136 3.2361L141.746 6.05034C142.059 6.5975 141.881 7.29416 141.349 7.62358L141.322 7.63975L135.16 11.2305V18.414C135.16 19.0466 134.658 19.5631 134.031 19.5791L134.001 19.5794H130.782C130.15 19.5794 129.639 19.0729 129.623 18.4441L129.623 18.414L129.622 14.4235L126.493 16.2475C125.946 16.5659 125.25 16.3852 124.923 15.8474L124.907 15.8203L123.297 13.006C122.979 12.4498 123.168 11.7388 123.72 11.4166L126.831 9.60386L123.46 7.63973C122.917 7.32271 122.725 6.62982 123.022 6.07778L123.037 6.0503L124.647 3.23607C124.961 2.68644 125.654 2.49148 126.205 2.79328L126.233 2.80878L129.622 4.78414L129.623 1.16539C129.623 0.532807 130.124 0.0163657 130.752 0.000381348L130.782 0H134.001ZM138.911 3.86044C138.604 4.03919 138.328 4.20007 138.082 4.34308C138.068 4.34742 138.054 4.35293 138.04 4.35959L138.02 4.37046L135.16 6.03505L135.16 6.05008L134.961 6.16608L132.972 7.32492C132.897 7.36897 132.818 7.40376 132.736 7.42929C132.514 7.51187 132.269 7.51187 132.047 7.42928C131.965 7.40379 131.886 7.36901 131.81 7.32496L129.623 6.05008L129.622 6.03505L126.763 4.37048C126.743 4.35876 126.722 4.34962 126.7 4.34298C126.461 4.2038 126.185 4.04293 125.871 3.86046C125.732 3.77914 125.555 3.82253 125.466 3.95797L125.456 3.97401L124.076 6.38462C123.99 6.53477 124.041 6.72692 124.188 6.8127C124.812 7.17559 125.279 7.44777 125.591 7.62921C125.629 7.65158 125.668 7.6711 125.707 7.68787L127.914 8.97268L127.917 8.97136L130.685 10.5849L130.685 10.5856L130.705 10.5973L130.705 18.1924C130.705 18.3591 130.833 18.4941 130.993 18.5035L131.011 18.5041H133.772C133.934 18.5041 134.067 18.3751 134.077 18.2108L134.077 18.1924L134.077 10.5973L134.248 10.498L138.863 7.812C138.898 7.79709 138.934 7.7795 138.969 7.75912C139.33 7.5488 139.872 7.23334 140.595 6.81271C140.736 6.7301 140.789 6.54886 140.716 6.4015L140.707 6.38465L139.327 3.97403C139.242 3.82605 139.057 3.77601 138.911 3.86044ZM138.489 9.92902L138.691 10.0469L141.359 11.6016C141.912 11.9238 142.101 12.6347 141.783 13.191L140.173 16.0053C139.853 16.5641 139.143 16.7563 138.587 16.4325L135.72 14.7618V11.5425L138.489 9.92902ZM138.49 11.1988L137.829 11.5858L137.829 12.8124L136.811 13.4076L136.812 14.1518L138.92 15.3852L138.936 15.394C139.078 15.4659 139.251 15.4142 139.333 15.2716L140.707 12.8589L140.716 12.842C140.789 12.6946 140.736 12.5132 140.595 12.4306L138.49 11.1988ZM127.924 10.2406L124.469 12.2528C124.321 12.3394 124.269 12.5334 124.356 12.685L125.746 15.1193C125.831 15.2686 126.018 15.3191 126.164 15.2339L129.622 13.213L129.623 11.2305L127.924 10.2406ZM133.79 1.1468H130.992C130.822 1.1468 130.683 1.28834 130.683 1.46479V5.33153L132.238 6.243C132.333 6.29864 132.45 6.29864 132.545 6.24296L134.1 5.33153V1.46479C134.1 1.28834 133.961 1.1468 133.79 1.1468Z" fill="url(#paint0_linear_1_361)"/>
<path fill-rule="evenodd" clip-rule="evenodd" d="M56.9687 17.7495C55.0446 17.7495 53.4792 19.3149 53.4792 21.2389C53.4792 23.163 55.0446 24.7284 56.9687 24.7284C58.8927 24.7284 60.4581 23.163 60.4581 21.2389C60.4581 19.3149 58.8927 17.7495 56.9687 17.7495ZM56.9687 28.3696C53.0368 28.3696 49.838 25.1708 49.838 21.2389C49.838 17.3071 53.0368 14.1083 56.9687 14.1083C60.9005 14.1083 64.0993 17.3071 64.0993 21.2389C64.0993 25.1708 60.9005 28.3696 56.9687 28.3696Z" fill="white"/>
<path fill-rule="evenodd" clip-rule="evenodd" d="M112.711 17.7495C110.787 17.7495 109.221 19.3149 109.221 21.2389C109.221 23.163 110.787 24.7284 112.711 24.7284C114.635 24.7284 116.2 23.163 116.2 21.2389C116.2 19.3149 114.635 17.7495 112.711 17.7495ZM112.711 28.3696C108.779 28.3696 105.58 25.1708 105.58 21.2389C105.58 17.3071 108.779 14.1083 112.711 14.1083C116.643 14.1083 119.841 17.3071 119.841 21.2389C119.841 25.1708 116.643 28.3696 112.711 28.3696Z" fill="white"/>
<path fill-rule="evenodd" clip-rule="evenodd" d="M46.0868 28.2928H43.6581C43.3225 28.2928 43.0505 28.0202 43.0505 27.6841V20.8122C43.0505 19.3216 41.9299 18.0178 40.445 17.9184C38.8167 17.8092 37.4572 19.105 37.4572 20.7133V27.6841C37.4572 28.0202 37.1851 28.2928 36.8493 28.2928H34.4209C34.085 28.2928 33.8132 28.0202 33.8132 27.6841V20.8718C33.8132 17.3781 36.5201 14.3982 40.0053 14.2662C43.6696 14.1274 46.6944 17.0733 46.6944 20.7133V27.6841C46.6944 28.0202 46.4224 28.2928 46.0868 28.2928Z" fill="white"/>
<path fill-rule="evenodd" clip-rule="evenodd" d="M64.0616 35.9553C64.2756 35.9635 64.4919 35.9614 64.7105 35.9483C68.143 35.7428 70.77 32.7963 70.77 29.3623V8.88902C70.77 8.55318 70.4973 8.28087 70.161 8.28087H67.7273C67.3907 8.28087 67.118 8.55318 67.118 8.88902V29.4151C67.118 30.9129 65.9826 32.2191 64.4856 32.3082C64.3419 32.3164 62.0244 32.3018 62.0244 32.3018C61.6885 32.3018 61.4158 32.5738 61.4158 32.9097V35.3511C61.4158 35.6875 61.6891 35.9598 62.0256 35.9589L64.0616 35.9553Z" fill="white"/>
<path fill-rule="evenodd" clip-rule="evenodd" d="M24.1336 28.288C20.6485 28.156 17.9417 25.1764 17.9417 21.6824V14.8695C17.9417 14.5337 18.2134 14.2614 18.5487 14.2614H20.9785C21.3138 14.2614 21.5856 14.5337 21.5856 14.8695V21.7417C21.5856 23.2326 22.7061 24.5364 24.1907 24.6361C25.8192 24.7453 27.179 23.4492 27.179 21.8409V14.8695C27.179 14.5337 27.4507 14.2614 27.786 14.2614H30.2155C30.5511 14.2614 30.8229 14.5337 30.8229 14.8695V21.8409C30.8229 25.4812 27.7975 28.4271 24.1336 28.288Z" fill="white"/>
<path fill-rule="evenodd" clip-rule="evenodd" d="M9.35081 15.4081C9.1061 15.7373 8.61212 15.7349 8.37045 15.4033L4.10872 9.52895C3.99428 9.37106 3.81105 9.27766 3.61595 9.27766H0.609732C0.112398 9.27766 -0.174923 9.84139 0.117268 10.2436L6.5957 19.166L7.03124 19.7616V21.7166V27.6843C7.03124 28.0202 7.30365 28.2928 7.63997 28.2928H10.0749C10.4109 28.2928 10.6836 28.0202 10.6836 27.6843V21.7166V19.7616L11.1189 19.166L17.8186 10.2515C18.1199 9.85052 17.8338 9.27766 17.3319 9.27766H14.2776C14.0864 9.27766 13.9066 9.36741 13.7915 9.51983L9.35081 15.4081Z" fill="white"/>
<path fill-rule="evenodd" clip-rule="evenodd" d="M101.982 28.2928H99.5533C99.2178 28.2928 98.9457 28.0202 98.9457 27.6841V20.8122C98.9457 19.3216 97.8252 18.0178 96.3403 17.9184C94.7121 17.8092 93.3523 19.105 93.3523 20.7133V27.6841C93.3523 28.0202 93.0802 28.2928 92.7447 28.2928H90.316C89.9805 28.2928 89.7084 28.0202 89.7084 27.6841V20.8718C89.7084 17.3781 92.4152 14.3982 95.9006 14.2662C99.5649 14.1274 102.59 17.0733 102.59 20.7133V27.6841C102.59 28.0202 102.318 28.2928 101.982 28.2928Z" fill="white"/>
<path fill-rule="evenodd" clip-rule="evenodd" d="M79.9523 28.288C76.4668 28.156 73.7603 25.1764 73.7603 21.6824V14.8695C73.7603 14.5337 74.032 14.2614 74.3673 14.2614H76.7972C77.1325 14.2614 77.4042 14.5337 77.4042 14.8695V21.7417C77.4042 23.2326 78.5245 24.5364 80.0094 24.6361C81.6377 24.7453 82.9975 23.4492 82.9975 21.8409V14.8695C82.9975 14.5337 83.2693 14.2614 83.6045 14.2614H86.0344C86.3697 14.2614 86.6415 14.5337 86.6415 14.8695V21.8409C86.6415 25.4812 83.6163 28.4271 79.9523 28.288Z" fill="white"/>
</g>
<defs>
<linearGradient id="paint0_linear_1_361" x1="125.846" y1="5.21122" x2="139.892" y2="13.8044" gradientUnits="userSpaceOnUse">
<stop stop-color="#FFA288"/>
<stop offset="1" stop-color="#FF5D87"/>
</linearGradient>
<clipPath id="clip0_1_361">
<rect width="142" height="35.9856" fill="white"/>
</clipPath>
</defs>
</svg>
